<svg id="Capa_1" data-name="Capa 1" xmlns="http://www.w3.org/2000/svg" viewBox="0 0 2060 2208.9"><defs><style>.cls-1{fill:#fff;}</style></defs><title>ivan</title>
<path d="M1095.84,806.87c-13.84,18.32-27.38,35.47-40,53.3-4.36,6.2-7,13.87-9.26,21.23-3.63,12,1.12,22.94,12.94,27.09,8.94,3.14,19.07,5.32,28.37,4.52,19-1.65,32.64,16.06,27.48,35.75a273,273,0,0,0-6.82,31.64c-1.84,13.37,3.3,24.32,13.92,32.87,25.3,20.36,30.71,39.44,19.42,69.66A291.91,291.91,0,0,0,1123,1184.65c0,12,3.39,23.09,10.87,32.55,13.15,16.63,35.5,16.17,47.27-1.34,7.58-11.27,13.12-23.95,21.11-34.87,11.08-15.14,22.78-30,35.76-43.54,11.86-12.36,25.47-23.15,38.87-33.94,31.88-25.65,54.21-57.54,65.67-97,5-17,10.56-33.9,16-50.81,7.52-23.41,18-45.4,32.65-65.23,15.18-20.46,23.08-44,29.8-68.23,3.25-11.7,7.94-23,12.75-34.22.87-2,5.76-3.79,8.35-3.31,111.67,20.65,215.52,61.41,310.35,123.9q254.91,168,348.6,458.95c24.63,76.25,37.4,154.72,39.39,234.84,7.44,298.94-139.55,577.59-391.12,740.41q-154.63,100.08-337.21,126.86c-337.48,49.91-670.11-103.82-850.75-393.76q-103.61-166.29-124-361.55c-12.57-118.44-1.45-234.65,35.25-347.82q101.19-312.06,383.83-479.89c68.44-40.67,141.64-70.18,218.82-89.8C1090.8,792.9,1090.77,792.79,1095.84,806.87Zm997.79,719.75,3.58-.27c-1.71-20.7-2.76-41.47-5.25-62.07-6.19-51.18-17.15-101.41-38.33-148.54-17.94-40-38.78-78.59-57.81-118.07-11.25-23.34-23.29-46.1-40.43-65.73-28.1-32.18-56.19-64.37-84.64-96.25-11.32-12.69-33-16.15-48.65-8.86-1.51.7-3,1.4-4.58,2-20.43,7.82-40.52-.42-48.61-20.7-3.89-9.75-5.86-20.24-9.34-30.16a18.41,18.41,0,0,0-21.85-12.17c-10.48,2.42-16.78,10.91-15.32,21.41.87,6.3,2.51,12.51,3.88,18.74,5,22.85,6.86,45.47-3.14,67.73-6.48,14.4-17.33,21.11-32.85,20.73-3.87-.1-7.74-.69-11.61-.9-13.84-.75-27.69-2.12-41.52-2-19.9.21-38.16,6.06-54.23,18.37-23.45,18-43,39.33-57.28,65.21a80.37,80.37,0,0,0-7.57,21c-2.47,11,4.23,18,15.44,16.58,6.59-.82,13-2.85,19.58-3.89,12.28-1.94,24.58-4.48,37-5.06,12.67-.59,22,7.66,25.52,19.86,4.54,16-2.39,35.8-19,46.14a174.46,174.46,0,0,1-41.43,18.65c-25.25,7.59-45.24,20.51-57,44.83a56.85,56.85,0,0,1-9.31,13.75c-4.46,4.83-9.34,9.69-15,13-18.82,10.92-33.46,6-43-13.61-2.66-5.47-5-11.22-8.61-16.08-7.24-9.89-15.29-9.22-21.46,1.42-6,10.25-7.47,20.85-1.19,31.59,7.15,12.21,15.1,24,21.45,36.61,10.58,21,5.52,38.73-13.45,52.41-8.09,5.84-16.2,11.73-23.7,18.29a62.85,62.85,0,0,0-20.09,34.74c-2.31,10.7,5.14,19.06,15.56,16.16,8-2.22,15.61-7,22.33-12,7.72-5.8,13.68-14,21.46-19.64a181,181,0,0,1,30.4-18.24c10.87-5,21.34-1.91,29.58,6.84q13.68,14.53,26.83,29.56c4.82,5.51,3.36,11.18-3.45,13.9-3.57,1.43-7.61,1.68-11.23,3-17.63,6.5-36.51,10.92-52.49,20.29-33.07,19.38-60.7,45.42-82.77,77.22-27.53,39.66-36.82,83.22-29.48,130.53,6.3,40.65,28.2,64.8,68.37,72.49,20.25,3.87,41.22,4.4,61.91,5.43,16.32.82,32.8-1,49,.26,45.51,3.56,80.47,30.4,68.06,87.83-5.28,24.39-10.71,48.82-14.36,73.49-6.54,44.34-6.48,88.53,8.3,131.67,7.44,21.72,19.14,40.52,36.8,55.48,23,19.44,57.09,25.2,83.43-7.22,19.63-24.16,33-51,41.85-80.64,13.06-43.58,27.28-86.8,41.09-130.15,14.85-46.65,38.9-87.37,75.5-120.65,10.07-9.16,18.26-21,25.34-32.74,9.39-15.64,13.55-32.19,4.8-50.61-7-14.65-3.07-24,10.18-33.9,7.32-5.5,15-10.54,21.83-16.64,13.89-12.5,16.38-24.15,8.35-41.07-4-8.45-10.21-15.83-14.69-24.09-5.37-9.89-11.7-19.74-14.48-30.43-4-15.32-.73-30.06,13.28-40,13.21-9.38,28.07-8.88,43.32,2.24,9.14,6.67,17.43,14.62,25.48,22.61,24,23.86,47.28,48.53,71.83,71.84,12,11.35,25.61,21.16,39.46,30.19,9.46,6.16,14.86,3,15.35-8.16.81-18.82,1.34-37.73.36-56.53C2099.18,1597.91,2096.17,1562.28,2093.63,1526.62Zm-1355-512.81c-6.12,5.28-12.7,9.87-17.92,15.68-17.05,19-33.21,38.75-50.48,57.51-11.45,12.44-24.3,23.57-36.35,35.46-39,38.52-70.89,82.12-89.09,134.11-21.17,60.47-40.62,121.55-60.24,182.55-9.78,30.39-11.81,60.93-2.81,92.54,4.77,16.75,5.56,35.12,5.23,52.7-.45,23-3.78,45.86-5.89,68.78-1.73,18.76-3.84,37.5-5,56.3-.32,5.21,2.12,10.59,3.3,15.9l3.84.2c2.08-4.87,5.48-9.61,6-14.64,1.14-11.24.94-22.62,1.07-33.94.13-11.06-1.24-22.29.31-33.12,1.78-12.43,12.21-17.22,22.11-9.63s18.29,17.54,26,27.49c8,10.26,14.45,21.69,21.36,32.75,15.61,25,37.36,40.66,66.44,47.47,25.25,5.92,49.25,15.75,68.85,33.7,23.52,21.54,47.31,42.83,70.11,65.12,27.44,26.82,44.2,58.37,42.45,98.48-.91,20.63,6.65,39.53,18.85,56.66,15.19,21.34,35.4,36.64,57.26,50.07,27.47,16.88,51.47,37.14,64.71,67.38,26.19,59.82,49.09,120.72,62.57,184.94a528.32,528.32,0,0,0,19.74,68.58c5.86,16.45,17.88,29.33,32.93,38.66,7.08,4.39,11.3,2.17,11.32-6.19a146.09,146.09,0,0,0-2.27-23.94c-3.3-20-8.48-39.72-10.25-59.79-3.46-39.41,6.22-77.05,18.56-114.18,15.94-47.94,36.84-92.87,74.13-128.42a40.27,40.27,0,0,0,4.19-5.17c6.16-8.14,7.5-17,1.6-25.48A145.22,145.22,0,0,0,1143,2020.9c-11.14-10.74-16.27-23.5-16-38.75.12-8.6,0-17.21,0-25.81-.18-25.51-9.71-45.65-34.38-55.64-14.06-5.69-28.57-10.83-43.34-14.08-26.38-5.79-51-15-73.33-30.35-23.78-16.33-47.86-32.24-71.29-49-13.94-10-28.21-12.54-44.76-8.29-19.77,5.08-36.8,15-53.48,26.24-21.68,14.57-54.68,1.54-57.85-24.57-2.44-20.13-10.22-32-29.7-37.6-10.56-3.06-15.73-12.19-14.89-23.43.59-8,2.26-15.85,3.5-23.77.71-4.48,1.54-9,2.31-13.42l-1.91-1.23c-7.63,4.84-15.21,9.75-22.91,14.48-10.1,6.21-20.79,10.75-33,9.39-25.53-2.87-45.82-31.28-41.65-58.08,4.83-31,30.86-55.25,62.42-55.78,18.18-.31,36.45,2.21,54.6,4.24,19.76,2.21,24.3.84,32.69-17.54,18.17-39.79,47-70.21,81.48-96.09,7.77-5.83,15.21-12.08,22.82-18.12,17.59-14,29.41-31.4,33.59-53.83,5.52-29.67,21.76-52.4,46.23-69.58,4.31-3,8.65-6,12.86-9.21,12.82-9.7,26.2-18.78,38.19-29.42,13.27-11.78,19.33-27.43,15.35-45.12-2.66-11.79-6.24-23.81-11.86-34.43-18.65-35.31-62.75-41.38-90.45-12.78-22.52,23.24-31.68,52.11-33.85,83.83-.6,8.75-1.7,17.91-4.91,25.94-6.64,16.56-24.45,18.73-34.79,4.27-4.87-6.81-7-15.56-10.62-23.28-2.81-6-5-12.72-9.36-17.33-22.35-23.64-25.09-51.92-19.2-81.62,6-30.27,25.35-52.31,49.93-69.21,21.45-14.75,44.66-26.91,66.43-41.24,10.73-7.06,20.51-15.88,29.55-25,3-3.06,4.18-10.24,2.82-14.44-.73-2.27-8.59-2.26-13.24-3.2a8.38,8.38,0,0,0-2.49.09c-24.73,2.51-44.92-3.72-54.43-33.67-.08-.27-.2-.52-.3-.78-2.38-6.41-6.54-9.63-13.52-7.1-16.88,6.11-33.8,12.13-50.56,18.57-8,3.07-15.41,7.74-23.51,10.4-15.09,5-30.23-.84-37.68-14.84C744.38,1033,742.34,1024.2,738.62,1013.81Zm1125.29,1224.6A842,842,0,0,0,2021.3,2036.9c.88-1.56,1.67-3.73,1.31-5.33-2.06-9-6.35-16.31-15.12-20.65-12.22-6-24.79-6.36-37.2-1.9-40.12,14.4-66.18,40.89-70.11,85.08-1.84,20.73-10.65,36.76-27.72,48.83a139.56,139.56,0,0,0-21.66,19.36c-18.48,20.06-18.73,43-1,63.55C1853.77,2230.36,1858.82,2233.91,1863.91,2238.41ZM1026.06,1152l-.58,0c0-2.22,0-4.44,0-6.66-.12-24.11,6.31-29.88,30.63-27.46,10.48,1,16.6-3.25,16-13.9a131.7,131.7,0,0,0-6.19-34c-7-20.85-12-41.52-6.79-63.57,1-4.26.83-8.84.8-13.26,0-4.77-2.05-7.41-7.53-7.8-9-.64-15,4.21-19.85,10.22a407,407,0,0,0-25,34.22c-10.47,16.3-16.59,33.61-9.82,53.53,4,11.79-.81,21.88-9.69,29.86-5.34,4.8-11.61,8.58-17,13.38s-11,9.56-14.75,15.5c-8.22,13.15-2.34,23.1,13.24,22.83a36.61,36.61,0,0,1,25.16,9,82.78,82.78,0,0,0,10,7.37c10.22,6.19,17.77,3.21,20.06-8.55C1026.18,1165.93,1025.72,1158.87,1026.06,1152Zm-53.35-141.46a65.74,65.74,0,0,0,8.61-2.32c14.1-5.51,16-12.3,8.43-25.11-5-8.51-11.49-17.38-12.72-26.7-2.26-17.16-12.75-27.77-24.1-38.32-12.79-11.88-20.23-10.94-30.31,3.7a49.17,49.17,0,0,0-6,13.52c-1.78,5.84-.46,10.76,5.81,13.74,10,4.73,14.37,13.24,15.23,24a82.45,82.45,0,0,0,1.75,11.48C942.64,999.09,956.83,1010.76,972.71,1010.51Zm-170.2,696.22c5,.18,10.31-1.94,10.63-8.08.19-3.51-3.12-10-5.48-10.32-8.4-1.09-11.66-7.21-16.44-12.41-3.43-3.72-8.22-6.31-12.7-8.89-3.74-2.16-8.09-3.27-11.85-5.4-5.08-2.89-9.62-2.84-13.37,1.71s-3.24,9.68,1.05,13.34c3.9,3.33,8.86,5.4,13.21,8.24,4.18,2.72,8.93,5,12.1,8.71C785.66,1700.54,791.62,1706.79,802.51,1706.73Zm665.5-415c-3-7.65-6.37-14.9-8.63-22.49-2.64-8.83-7.73-13.58-16.8-16.15-8.46-2.41-11.67,2.13-15,7.62-3.51,5.81-2.53,10.77,3.08,15.17,8.63,6.77,16.78,14.14,25.39,20.94,2.17,1.71,5.91,3.68,7.8,2.87S1466.53,1294.87,1468,1291.76Z" transform="translate(-250 -483.55)"/>
<path d="M1342.72,2616q0-27.9,0-55.8c0-13.55,4.41-19.42,17.44-20.45,49.41-3.92,97.86-13.5,145.55-26.23a870.63,870.63,0,0,0,124.1-43.86c73.43-32.1,141.9-72.53,203.73-123.45a1203,1203,0,0,0,90.9-82.6c47.33-47.9,88.81-100.88,122.55-159.25,22.26-38.5,43.42-77.86,61.79-118.32,22.38-49.28,38.72-100.94,51.18-153.78,10.89-46.22,18.8-92.89,22.45-140.21,1.81-23.44,3.39-47,2.84-70.5-1-41.92-1.55-84-6.06-125.65a876.54,876.54,0,0,0-47.6-204.2,982.19,982.19,0,0,0-56-126.58c-20-37.71-42-74.17-67.39-108.33-19.94-26.77-41.17-52.66-63-77.89-16.14-18.62-33.91-35.88-51.53-53.15-31.06-30.42-64.82-57.69-100.2-82.91-42.45-30.25-87-57.18-134.34-78.9-30.34-13.91-61.66-25.68-92.56-38.37-4.08-1.67-8.35-2.93-12.41-4.66-8.3-3.55-12.06-10.94-9.7-18.65,2.48-8.09,10.3-12.79,19.07-10.11,24.54,7.51,49.53,14.08,73.23,23.74,39.66,16.17,79,33.35,117.47,52.14,46,22.48,89,50.33,130.7,80.12a1009.36,1009.36,0,0,1,128.61,109.69A997.23,997.23,0,0,1,2131,1099.41c27.49,40.28,53.43,81.57,73.74,125.88,18.17,39.63,35.57,79.82,49.87,121,13.73,39.47,24.39,80.17,33.86,120.92,6.78,29.18,9.31,59.34,13.87,89,7.49,48.87,8.68,98.12,6.9,147.33-1.26,35-4.67,69.91-8.66,104.69-5.94,51.86-17.5,102.67-32.29,152.71-16.64,56.31-37.58,111-64.42,163.24-17.3,33.63-35.56,67-56.45,98.48-24.25,36.54-50.21,72.24-78.47,105.73-27.25,32.31-57.82,61.91-88,91.67-39.47,39-84,71.87-130,102.68a998.79,998.79,0,0,1-115.77,66.35,1029.25,1029.25,0,0,1-131.8,54.07c-49.79,16.4-100.4,29.84-152.31,37.65q-44.89,6.75-90.1,11.49c-12.18,1.3-18.29-5.61-18.35-18C1342.65,2654.86,1342.71,2635.43,1342.72,2616Z" transform="translate(-250 -483.55)"/>
<path d="M1215.64,2617.32c0,19.71,0,39.42,0,59.13,0,10.93-5.33,16.86-16.3,15.89-23-2.06-46.06-4.74-69-7.78-44.61-5.9-88.46-15.77-131.65-28.15-46-13.18-91.39-28.23-134.55-49.1-33.6-16.24-67.25-32.5-100-50.38a770,770,0,0,1-117.49-79c-28-22.86-55.58-46.42-82.31-70.8-33.53-30.6-64.51-63.87-91.63-100.26-27.38-36.73-54.89-73.65-78.59-112.76-22.87-37.75-42.22-77.81-60.8-117.93-23.84-51.48-41.55-105.37-54.3-160.68-7.54-32.72-14.4-65.69-19.33-98.87-4.34-29.14-6.4-58.7-7.91-88.16-1.52-29.61-2.43-59.38-1.21-89,1.35-32.75,5.48-65.38,8.28-98.07,3.72-43.31,13.36-85.55,24.42-127.38A993.37,993.37,0,0,1,350,1234.13c20.08-41.39,41.83-81.91,68.28-119.46,25.57-36.31,52.39-71.94,81.16-105.74A883.51,883.51,0,0,1,582,923.69c33-29.62,68.37-56.88,104.15-83.2,26.22-19.29,54.26-36.27,82.39-52.73,40.12-23.49,81.79-44.15,125.38-60.46C926.74,715,960,704,993.16,692.6c9.63-3.3,19.25.39,20.51,8.07,1.89,11.5.83,16.84-11,21.54-35.71,14.11-72,27-106.63,43.46a818,818,0,0,0-170.52,108c-29,23.92-57.72,48.54-83.63,75.66-29.51,30.9-56.43,64.4-83.22,97.77-30.73,38.28-55.91,80.4-78.21,124a949.47,949.47,0,0,0-41.32,92.26c-13.12,34.25-25,69.17-34.33,104.61s-16.08,71.45-21.48,107.59c-4.77,31.88-7.19,64.22-8.64,96.45-1.39,31.18-2.29,62.65.32,93.68,3.69,43.87,9.17,87.74,16.88,131.09a766.67,766.67,0,0,0,47,160.09c10.07,24.25,19.22,49,31.47,72.18,18.74,35.37,38.3,70.49,60.31,103.88,21.08,32,44.57,62.58,69.1,92,30.5,36.62,64,70.68,101.11,100.75,28.53,23.12,57.51,45.84,87.65,66.78a736,736,0,0,0,121.55,68.2c29.26,13,59.06,24.88,89.14,35.81,43.1,15.67,87.66,26.35,132.78,34.33,21.67,3.83,43.64,6.12,65.53,8.58,12.86,1.45,18.13,6.58,18.13,19.59Q1215.66,2588.18,1215.64,2617.32Z" transform="translate(-250 -483.55)"/>
<path d="M1054.39,684.47c2.93-3.75,5.42-9.63,9.82-12.12a514,514,0,0,0,106.92-80.81,509.6,509.6,0,0,0,80.29-102c4.71-7.83,7-8,12,0,18.09,29.21,38.18,57,61.32,82.34,22.61,24.81,47.35,47.46,74.8,66.85,16.69,11.8,34.19,22.46,51.4,33.54,8.89,5.72,11,13.45,5.78,23.56-12.21,23.59-24.74,47-36.81,70.67-12.33,24.17-24.08,48.64-36.39,72.82q-49.17,96.57-98.58,193c-4.92,9.63-9.16,19.66-14.84,28.81a21.68,21.68,0,0,1-11.83,8.64c-5.74,1.53-10.08-2.07-12.94-7.85-11.2-22.57-22.83-44.92-34.27-67.37q-48.68-95.51-97.32-191-20.88-41-41.9-81.89c-4.53-8.85-9.25-17.61-13.69-26.5C1056.79,692.43,1056.11,689.47,1054.39,684.47Z" transform="translate(-250 -483.55)"/>
<path class="cls-1" d="M1468,1291.76c-1.48,3.11-2.15,7.11-4.15,8s-5.63-1.16-7.8-2.87c-8.61-6.8-16.76-14.17-25.39-20.94-5.61-4.4-6.59-9.36-3.08-15.17,3.32-5.49,6.53-10,15-7.62,9.07,2.57,14.16,7.32,16.8,16.15C1461.64,1276.86,1465,1284.11,1468,1291.76Z" transform="translate(-250 -483.55)"/></svg>